<svg xmlns="http://www.w3.org/2000/svg" width="512" height="512" fill="none" aria-label="Claude Workspace" role="img" viewBox="0 0 512 512"><defs><linearGradient id="bg" x1="64" x2="448" y1="48" y2="464" gradientUnits="userSpaceOnUse"><stop offset="0" stop-color="#6ea8fe"/><stop offset=".55" stop-color="#7e95fb"/><stop offset="1" stop-color="#9d7bff"/></linearGradient><linearGradient id="sheen" x1="96" x2="256" y1="64" y2="320" gradientUnits="userSpaceOnUse"><stop offset="0" stop-color="#fff" stop-opacity=".22"/><stop offset="1" stop-color="#fff" stop-opacity="0"/></linearGradient></defs><rect width="448" height="448" x="32" y="32" fill="url(#bg)" rx="112"/><rect width="448" height="448" x="32" y="32" fill="url(#sheen)" rx="112"/><g><rect width="272" height="248" x="120" y="132" fill="#0b0d12" fill-opacity=".9" rx="30"/><rect width="272" height="248" x="120" y="132" stroke="#fff" stroke-opacity=".16" stroke-width="2" rx="30"/><circle cx="152" cy="166" r="7" fill="#6ea8fe"/><circle cx="176" cy="166" r="7" fill="#7e95fb"/><circle cx="200" cy="166" r="7" fill="#9d7bff"/><line x1="206" x2="206" y1="196" y2="356" stroke="#fff" stroke-opacity=".12" stroke-width="2"/><rect width="40" height="10" x="146" y="212" fill="#566175" rx="5"/><rect width="40" height="10" x="146" y="236" fill="#3a4459" rx="5"/><rect width="40" height="10" x="146" y="260" fill="#3a4459" rx="5"/><rect width="140" height="11" x="226" y="212" fill="#e6e9ef" rx="5.5"/><rect width="120" height="11" x="226" y="238" fill="#a6b0c0" rx="5.5"/><rect width="132" height="11" x="226" y="264" fill="#a6b0c0" rx="5.5"/><rect width="84" height="11" x="226" y="296" fill="#6ea8fe" rx="5.5"/></g><path fill="#fff" d="M372 300c1.2 16.8 7 22.6 23.8 23.8-16.8 1.2-22.6 7-23.8 23.8-1.2-16.8-7-22.6-23.8-23.8 16.8-1.2 22.6-7 23.8-23.8Z"/></svg>